<svg width="77" height="77" viewBox="0 0 77 77" fill="none" xmlns="http://www.w3.org/2000/svg">
<circle cx="38.1024" cy="38.1024" r="38.1024" fill="#282828"/>
<path d="M16.5664 59.6385C16.5664 58.8327 16.5664 58.0057 16.5664 57.1787C17.3934 57.1787 18.178 57.1787 19.0262 57.1787C19.0262 52.9801 19.0262 48.8028 19.0262 44.6042C21.5707 44.6042 24.0517 44.6042 26.5751 44.6042C26.5751 48.7816 26.5751 52.9377 26.5751 57.1363C27.4021 57.1363 28.2079 57.1363 29.056 57.1363C29.056 50.478 29.056 43.8197 29.056 37.1402C31.5582 37.1402 33.9968 37.1402 36.4989 37.1402C36.4989 43.7985 36.4989 50.4568 36.4989 57.1363C37.3471 57.1363 38.1529 57.1363 38.9799 57.1363C38.9799 52.132 38.9799 47.1488 38.9799 42.1233C41.4821 42.1233 43.9418 42.1233 46.444 42.1233C46.444 47.1276 46.444 52.132 46.444 57.1363C47.2922 57.1363 48.0768 57.1363 48.925 57.1363C48.925 48.824 48.925 40.5117 48.925 32.1782C51.4695 32.1782 53.9505 32.1782 56.4739 32.1782C56.4739 40.4905 56.4739 48.8028 56.4739 57.1575C57.3221 57.1575 58.1491 57.1575 58.976 57.1575C58.976 57.9845 58.976 58.8115 58.976 59.6385C44.8324 59.6385 30.71 59.6385 16.5664 59.6385Z" fill="white"/>
<path d="M58.9766 27.1738C58.1708 27.1738 57.3438 27.1738 56.4957 27.1738C56.4957 25.2866 56.4957 23.4418 56.4957 21.4697C51.873 26.0712 47.314 30.5878 42.7761 35.1044C39.4682 31.7965 36.1814 28.5097 32.8311 25.1594C28.0812 29.8668 23.3949 34.5319 18.7087 39.197C18.1149 38.6032 17.5424 38.0519 17.0547 37.543C22.2499 32.263 27.4663 26.9618 32.7038 21.6606C36.0754 25.0321 39.3834 28.3401 42.7337 31.6904C46.699 27.6403 50.6007 23.6538 54.4388 19.7309C52.7424 19.7309 50.8552 19.7309 48.9679 19.7309C48.9679 18.8827 48.9679 18.0982 48.9679 17.2288C52.2971 17.2288 55.6263 17.2288 58.9766 17.2288C58.9766 20.5367 58.9766 23.8659 58.9766 27.1738Z" fill="white"/>
</svg>
