<svg width="76" height="76" viewBox="0 0 76 76" fill="none" xmlns="http://www.w3.org/2000/svg">
<circle cx="38" cy="38" r="38" fill="#282828"/>
<path d="M48.5 53.3333C50.0471 53.3333 51.5308 52.7188 52.6248 51.6248C53.7188 50.5308 54.3333 49.0471 54.3333 47.5C54.3333 45.9529 53.7188 44.4692 52.6248 43.3752C51.5308 42.2812 50.0471 41.6667 48.5 41.6667C46.9529 41.6667 45.4692 42.2812 44.3752 43.3752C43.2812 44.4692 42.6667 45.9529 42.6667 47.5C42.6667 49.0471 43.2812 50.5308 44.3752 51.6248C45.4692 52.7188 46.9529 53.3333 48.5 53.3333ZM33.3333 20.6667L38 16L33.3333 20.6667ZM27.5 32.3333C29.0471 32.3333 30.5308 31.7188 31.6248 30.6248C32.7188 29.5308 33.3333 28.0471 33.3333 26.5C33.3333 24.9529 32.7188 23.4692 31.6248 22.3752C30.5308 21.2812 29.0471 20.6667 27.5 20.6667C25.9529 20.6667 24.4692 21.2812 23.3752 22.3752C22.2812 23.4692 21.6667 24.9529 21.6667 26.5C21.6667 28.0471 22.2812 29.5308 23.3752 30.6248C24.4692 31.7188 25.9529 32.3333 27.5 32.3333ZM28.6667 46.3333L47.3333 27.6667L28.6667 46.3333ZM22.8333 58C24.3804 58 25.8642 57.3854 26.9581 56.2915C28.0521 55.1975 28.6667 53.7138 28.6667 52.1667C28.6667 50.6196 28.0521 49.1358 26.9581 48.0419C25.8642 46.9479 24.3804 46.3333 22.8333 46.3333C21.2862 46.3333 19.8025 46.9479 18.7085 48.0419C17.6146 49.1358 17 50.6196 17 52.1667C17 53.7138 17.6146 55.1975 18.7085 56.2915C19.8025 57.3854 21.2862 58 22.8333 58ZM53.1667 27.6667C54.7138 27.6667 56.1975 27.0521 57.2915 25.9581C58.3854 24.8642 59 23.3804 59 21.8333C59 20.2862 58.3854 18.8025 57.2915 17.7085C56.1975 16.6146 54.7138 16 53.1667 16C51.6196 16 50.1358 16.6146 49.0419 17.7085C47.9479 18.8025 47.3333 20.2862 47.3333 21.8333C47.3333 23.3804 47.9479 24.8642 49.0419 25.9581C50.1358 27.0521 51.6196 27.6667 53.1667 27.6667ZM38 58L42.6667 53.3333L38 58Z" fill="#282828"/>
<path d="M38 58L42.6667 53.3333M48.5 53.3333C50.0471 53.3333 51.5308 52.7188 52.6248 51.6248C53.7188 50.5308 54.3333 49.0471 54.3333 47.5C54.3333 45.9529 53.7188 44.4692 52.6248 43.3752C51.5308 42.2812 50.0471 41.6667 48.5 41.6667C46.9529 41.6667 45.4692 42.2812 44.3752 43.3752C43.2812 44.4692 42.6667 45.9529 42.6667 47.5C42.6667 49.0471 43.2812 50.5308 44.3752 51.6248C45.4692 52.7188 46.9529 53.3333 48.5 53.3333V53.3333ZM33.3333 20.6667L38 16L33.3333 20.6667ZM27.5 32.3333C29.0471 32.3333 30.5308 31.7188 31.6248 30.6248C32.7188 29.5308 33.3333 28.0471 33.3333 26.5C33.3333 24.9529 32.7188 23.4692 31.6248 22.3752C30.5308 21.2812 29.0471 20.6667 27.5 20.6667C25.9529 20.6667 24.4692 21.2812 23.3752 22.3752C22.2812 23.4692 21.6667 24.9529 21.6667 26.5C21.6667 28.0471 22.2812 29.5308 23.3752 30.6248C24.4692 31.7188 25.9529 32.3333 27.5 32.3333V32.3333ZM28.6667 46.3333L47.3333 27.6667L28.6667 46.3333ZM22.8333 58C24.3804 58 25.8642 57.3854 26.9581 56.2915C28.0521 55.1975 28.6667 53.7138 28.6667 52.1667C28.6667 50.6196 28.0521 49.1358 26.9581 48.0419C25.8642 46.9479 24.3804 46.3333 22.8333 46.3333C21.2862 46.3333 19.8025 46.9479 18.7085 48.0419C17.6146 49.1358 17 50.6196 17 52.1667C17 53.7138 17.6146 55.1975 18.7085 56.2915C19.8025 57.3854 21.2862 58 22.8333 58V58ZM53.1667 27.6667C54.7138 27.6667 56.1975 27.0521 57.2915 25.9581C58.3854 24.8642 59 23.3804 59 21.8333C59 20.2862 58.3854 18.8025 57.2915 17.7085C56.1975 16.6146 54.7138 16 53.1667 16C51.6196 16 50.1358 16.6146 49.0419 17.7085C47.9479 18.8025 47.3333 20.2862 47.3333 21.8333C47.3333 23.3804 47.9479 24.8642 49.0419 25.9581C50.1358 27.0521 51.6196 27.6667 53.1667 27.6667Z" stroke="white" stroke-width="3" stroke-linecap="round" stroke-linejoin="round"/>
</svg>
